<svg width="32" height="20" viewBox="0 0 32 20" fill="none" xmlns="http://www.w3.org/2000/svg">
  <rect width="32" height="20" rx="3" fill="#006FCF"/>
  <g fill="white">
    <path d="M6.5 7.5h2.8l.4.8.4-.8h2.8l-.8 1.2.8 1.3h-2.8l-.4-.8-.4.8h-2.8l.8-1.3-.8-1.2z"/>
    <path d="M14.5 7.5h4v.8h-2.8v.4h2.6v.8h-2.6v.4h2.8v.8h-4v-3.2z"/>
    <path d="M20.5 7.5h1.2l1.6 2.2v-2.2h1.2v3.2h-1.2l-1.6-2.2v2.2h-1.2v-3.2z"/>
    <path d="M6 11.5h1.2l.3.6h1.4l.3-.6h1.2l-1.5 3.2h-1.4l-1.5-3.2zm2.2 1.8l.3-.8.3.8h-.6z"/>
    <path d="M11.5 11.5h1.8c.8 0 1.2.4 1.2 1s-.2.8-.6.9c.5.1.8.5.8 1 0 .7-.5 1.3-1.3 1.3h-1.9v-4.2zm1.2 1.6h.4c.2 0 .4-.1.4-.4s-.2-.4-.4-.4h-.4v.8zm0 1.4h.5c.3 0 .5-.2.5-.5s-.2-.5-.5-.5h-.5v1z"/>
    <path d="M16.5 11.5h4v.8h-2.8v.4h2.6v.8h-2.6v.4h2.8v.8h-4v-3.2z"/>
    <path d="M22.5 11.5h1.2l1.6 2.2v-2.2h1.2v3.2h-1.2l-1.6-2.2v2.2h-1.2v-3.2z"/>
  </g>
</svg>