<svg width="32" height="20" viewBox="0 0 32 20" fill="none" xmlns="http://www.w3.org/2000/svg">
  <rect width="32" height="20" rx="3" fill="#1A1F71"/>
  <path d="M11.2 6.4h2.4l-1.5 7.2h-2.4l1.5-7.2zm6.9 4.6c0-.9-.6-1.4-1.9-1.7-.8-.2-1.3-.4-1.3-.7 0-.3.3-.6 1-.6.6 0 1 .1 1.4.3l.3.1.2-1.3c-.3-.1-.8-.2-1.4-.2-1.5 0-2.6.8-2.6 1.9 0 .8.7 1.3 1.3 1.6.6.3.8.5.8.8 0 .5-.6.7-1.1.7-.7 0-1.1-.1-1.7-.4l-.2-.1-.2 1.4c.4.2 1.1.3 1.8.3 1.6 0 2.7-.8 2.7-2zm4.1-4.6h-1.9c-.6 0-1 .3-1.2.8l-3.4 8h1.6s.3-.7.3-.9h2c0 .2.1.9.1.9h1.4l-1.2-7.8zm-1.9 5.5c.1-.3.6-1.6.6-1.6s.1-.3.2-.5l.1.5s.3 1.4.4 1.6h-1.3zm-8.8-5.5l-2.3 5.3-.2-1.2c-.4-1.3-1.6-2.7-3-3.4l2.1 6.5h1.6l2.4-7.2h-1.6z" fill="white"/>
  <path d="M6.4 6.4h-3.7l-.02.2c1.9.5 3.2 1.7 3.7 3.1l-.5-2.5c-.1-.4-.4-.7-.8-.8z" fill="#F7B600"/>
</svg>