<svg width="250" height="66" viewBox="0 0 250 66" fill="none" xmlns="http://www.w3.org/2000/svg">
<path d="M78.1874 25.8669C76.9921 25.0352 75.3087 25.5929 74.477 26.7882L64.881 40.5755C64.0493 41.7708 64.607 43.4542 65.8023 44.2859L69.2193 46.5414C70.4146 47.3731 72.098 46.8154 72.9297 45.6201L78.1874 25.8669Z" fill="#07553B"/>
<path d="M73.4336 24.3752L83.0296 10.5879C83.8613 9.3926 83.3036 7.70921 82.1083 6.8775L78.6913 4.62201C77.496 3.7903 75.8126 4.34801 74.9809 5.54331L65.3849 19.3306" fill="#07553B"/>
<path d="M96.7925 3.30175C95.5972 2.47005 93.9138 3.02776 93.0821 4.22306L85.642 14.8384C84.8103 16.0337 85.368 17.7171 86.5633 18.5488L90.0211 20.8327C91.2164 21.6644 92.9 21.1067 93.7317 19.9114L96.7925 3.30175Z" fill="#07553B"/>
<path d="M129.582 2.72373C128.387 1.89202 126.703 2.44973 125.872 3.64503L104.978 33.153C104.147 34.3483 104.704 36.0317 105.9 36.8634L109.358 39.1473C110.553 39.979 112.236 39.4213 113.068 38.226L129.582 2.72373Z" fill="#07553B"/>
<path d="M101.444 34.6291C100.249 33.7974 98.5651 34.3551 97.7334 35.5504L90.2934 46.1658C89.4617 47.3611 90.0194 49.0445 91.2147 49.8762L94.6725 52.1601C95.8678 52.9918 97.5512 52.4341 98.3829 51.2388L101.444 34.6291Z" fill="#07553B"/>
<path d="M117.892 40.2185C116.697 39.3868 115.013 39.9445 114.182 41.1398L108.625 49.102C107.793 50.2973 108.351 51.9807 109.546 52.8124L113.004 55.0963C114.199 55.928 115.883 55.3703 116.714 54.175L117.892 40.2185Z" fill="#07553B"/>
<path d="M105.342 61.2688C105.342 63.8583 107.391 65.9076 109.981 65.9076C112.57 65.9076 114.62 63.8583 114.62 61.2688C114.62 58.6792 112.57 56.6299 109.981 56.6299C107.391 56.6299 105.342 58.6792 105.342 61.2688Z" fill="#07553B"/>
<path d="M60.6699 29.8462C60.6699 43.153 50.1332 53.6897 36.8264 53.6897C23.5196 53.6897 13 43.153 13 29.8462C13 16.5394 23.5196 6 36.8264 6C50.1332 6 60.6699 16.5394 60.6699 29.8462Z" stroke="#07553B" stroke-width="4"/>
<path d="M138.829 42.4547V13.3428H144.183V42.4547H138.829Z" fill="#07553B"/>
<path d="M162.771 42.4547V25.2618C162.771 20.9168 160.781 18.2731 156.413 18.2731C152.131 18.2731 150.184 20.8308 150.184 25.0898V42.4547H144.83V13.3428H150.184V16.3546C151.789 14.1278 154.347 12.833 157.076 12.833C161.731 12.833 168.125 15.5627 168.125 24.3419V42.4547H162.771Z" fill="#07553B"/>
<path d="M185.111 42.4547V13.3428H190.465V42.4547H185.111Z" fill="#07553B"/>
<path d="M208.225 42.4547V13.3428H213.579V42.4547H208.225Z" fill="#07553B"/>
<path d="M194.279 27.8988C194.279 21.0449 198.138 18.0331 202.934 18.0331C208.018 18.0331 211.246 21.4629 211.246 27.8988V30.1543H194.279V27.8988ZM216.634 32.3923C216.502 27.2669 215.148 22.8359 212.892 20.1352C210.637 17.4345 207.293 12.833 202.934 12.833C197.422 12.833 193.307 16.3546 190.879 20.2212C188.451 24.0877 188.784 28.5187 188.784 32.6223V42.4547H216.634V32.3923Z" fill="#07553B"/>
<path d="M220.254 42.4547V13.3428H225.608V39.6378L241.025 13.3428H247.419L231.025 31.7604L248.307 42.4547H241.657L228.473 33.1773L225.608 36.9248V42.4547H220.254Z" fill="#07553B"/>
</svg>
